<svg id="Capa_1" enable-background="new 0 0 512 512" height="512" viewBox="0 0 512 512" width="512" xmlns="http://www.w3.org/2000/svg"><g><g><path d="m125.398 442.607c-3.042 10.484 2.992 21.45 13.476 24.491 10.484 3.042 21.449-2.991 24.491-13.476l23.623-81.427c.7-2.414 2.911-4.074 5.424-4.074h127.174c2.513 0 4.724 1.66 5.424 4.074l23.624 81.427c2.507 8.646 10.403 14.264 18.974 14.264 1.823 0 3.677-.255 5.516-.789 10.484-3.041 6.518-14.006 3.476-24.491l-111.617-384.733c-2.45-8.447-.188-14.259-8.983-14.259-8.796 0-16.533 5.812-18.984 14.259zm136.026-289.59 19.899 68.59c1.048 3.613-1.662 7.221-5.424 7.221h-39.798c-3.762 0-6.472-3.608-5.424-7.221l19.899-68.59c1.576-5.432 9.272-5.432 10.848 0zm-59.689 168.35 14.196-48.932c.7-2.414 2.911-4.074 5.424-4.074h69.29c2.513 0 4.724 1.66 5.424 4.074l14.196 48.932c1.048 3.613-1.662 7.221-5.424 7.221h-97.682c-3.762 0-6.472-3.608-5.424-7.221z" fill="#ea7bc1"/><g><path d="m386.601 442.607-111.618-384.734c-2.45-8.447-10.188-14.259-18.983-14.259-3.612 0-7.038.993-10 2.733 4.251 2.497 7.539 6.547 8.983 11.525l111.618 384.734c2.575 8.873-1.366 18.071-8.989 22.538 2.992 1.757 6.433 2.741 9.997 2.741 1.823 0 3.677-.255 5.516-.788 10.485-3.04 16.518-14.006 13.476-24.49z" fill="#ea5bb1"/></g><path d="m469.5 436.819h-437c-13.807 0-25 11.193-25 25v32.308c0 5.523 4.477 10 10 10h467c5.523 0 10-4.477 10-10v-32.308c0-13.807-11.193-25-25-25z" fill="#ade4a4"/><path d="m479.5 436.819h-30c13.807 0 25 11.193 25 25v32.307c0 5.523-4.477 10-10 10h30c5.523 0 10-4.477 10-10v-32.307c0-13.807-11.193-25-25-25z" fill="#8bd5a7"/><path d="m283.457 55.058c0 20.687-6.77 36.457-27.457 36.457-3.464 0-6.819.53-10.003-.35-15.83-4.376-27.454-18.884-27.454-36.106s11.624-31.73 27.454-36.106c3.184-.88 6.539-.35 10.003-.35 20.687-.002 27.457 15.768 27.457 36.455z" fill="#ffe187"/><path d="m256 17.601c-3.465 0-6.815.48-10 1.361 15.83 4.376 27.457 18.874 27.457 36.096s-11.627 31.719-27.457 36.096c3.185.88 6.535 1.361 10 1.361 20.687 0 37.457-16.77 37.457-37.457s-16.77-37.457-37.457-37.457z" fill="#ffd26f"/></g><g><path d="m329.272 91.722c1.465 1.464 3.385 2.196 5.304 2.196s3.839-.732 5.304-2.196c20.241-20.242 20.241-53.179 0-73.421-2.93-2.928-7.678-2.928-10.607 0-2.929 2.93-2.929 7.678 0 10.607 14.393 14.394 14.393 37.813 0 52.206-2.929 2.93-2.929 7.678-.001 10.608z"/><path d="m365.106 107.453c1.465 1.464 3.385 2.196 5.304 2.196s3.839-.732 5.304-2.196c14.008-14.008 21.722-32.633 21.722-52.442s-7.714-38.434-21.722-52.441c-2.93-2.928-7.678-2.928-10.607 0-2.929 2.93-2.929 7.678 0 10.607 23.068 23.067 23.068 60.602 0 83.669-2.929 2.929-2.929 7.677-.001 10.607z"/><path d="m177.423 93.918c1.919 0 3.839-.732 5.303-2.196 2.929-2.93 2.929-7.678 0-10.607-14.393-14.393-14.393-37.813 0-52.206 2.929-2.93 2.929-7.678 0-10.607-2.929-2.928-7.678-2.929-10.607.001-20.242 20.241-20.242 53.178 0 73.42 1.465 1.462 3.385 2.195 5.304 2.195z"/><path d="m141.589 109.649c1.919 0 3.839-.732 5.303-2.196 2.929-2.929 2.929-7.678 0-10.606-23.067-23.068-23.067-60.603 0-83.671 2.929-2.929 2.929-7.678 0-10.607-2.929-2.928-7.678-2.929-10.607.001-28.915 28.916-28.915 75.966 0 104.882 1.465 1.465 3.385 2.197 5.304 2.197z"/><path d="m236.101 236.328h39.798c4.174 0 8.006-1.914 10.512-5.251 2.507-3.338 3.278-7.551 2.115-11.559l-19.899-68.59c-1.647-5.673-6.721-9.484-12.628-9.484-5.906 0-10.98 3.812-12.626 9.484l-19.899 68.59c-1.163 4.009-.392 8.222 2.115 11.559 2.506 3.337 6.338 5.251 10.512 5.251zm19.899-75.088 17.433 60.088h-34.866z"/><path d="m208.728 270.346-14.195 48.931c-1.164 4.009-.393 8.222 2.114 11.56 2.506 3.338 6.338 5.252 10.513 5.252h97.682c4.175 0 8.007-1.915 10.514-5.253s3.276-7.551 2.113-11.558l-14.195-48.931c-1.62-5.585-6.812-9.485-12.627-9.485h-69.29c-5.817-.001-11.009 3.9-12.629 9.484zm80.526 5.515 13.12 45.227h-92.749l13.121-45.227z"/><path d="m479.5 444.319c9.649 0 17.5 7.851 17.5 17.5v32.308c0 1.379-1.121 2.5-2.5 2.5h-477c-1.378 0-2.5-1.121-2.5-2.5v-32.308c0-9.649 7.851-17.5 17.5-17.5h35.271c4.142 0 7.5-3.357 7.5-7.5s-3.358-7.5-7.5-7.5h-35.271c-17.92 0-32.5 14.579-32.5 32.5v32.308c0 9.649 7.851 17.5 17.5 17.5h477c9.649 0 17.5-7.851 17.5-17.5v-32.308c0-17.921-14.579-32.5-32.5-32.5h-88.945l-100.184-345.327c6.599-7.826 10.586-17.921 10.586-28.935 0-24.789-20.168-44.956-44.957-44.956s-44.957 20.167-44.957 44.956c0 11.013 3.987 21.109 10.586 28.935l-17.342 59.774c-1.154 3.979 1.135 8.139 5.113 9.293.698.202 1.401.299 2.093.299 3.252 0 6.248-2.132 7.2-5.412l15.542-53.569c6.454 3.587 13.873 5.638 21.765 5.638s15.311-2.051 21.765-5.637l97.172 334.942h-25.543l-17.18-59.215c-1.62-5.584-6.812-9.484-12.627-9.484h-21.693c-4.143 0-7.5 3.357-7.5 7.5s3.357 7.5 7.5 7.5h20.302l15.58 53.699h-155.55l15.579-53.699h71.402c4.143 0 7.5-3.357 7.5-7.5s-3.357-7.5-7.5-7.5h-72.794c-5.814 0-11.006 3.9-12.627 9.484l-17.179 59.215h-25.544l72.514-249.949c1.154-3.979-1.135-8.139-5.113-9.293-3.979-1.149-8.139 1.136-9.293 5.113l-73.727 254.129h-20.986c-4.142 0-7.5 3.357-7.5 7.5s3.358 7.5 7.5 7.5h379.042zm-253.457-389.261c0-16.518 13.438-29.956 29.957-29.956s29.957 13.439 29.957 29.956c0 16.518-13.438 29.957-29.957 29.957-16.518 0-29.957-13.439-29.957-29.957z"/></g></g></svg>